<svg width="900" height="732" viewBox="0 0 900 732" fill="none" xmlns="http://www.w3.org/2000/svg">
<g clip-path="url(#clip0)">
<path d="M256.43 462.749C255.054 462.234 253.807 461.422 252.777 460.373C251.748 459.323 250.961 458.061 250.473 456.674C249.984 455.288 249.805 453.811 249.949 452.348C250.093 450.885 250.556 449.471 251.305 448.207L228.229 420.921L246.668 418.716L265.754 444.965C267.795 446.365 269.252 448.465 269.849 450.867C270.446 453.269 270.14 455.806 268.991 457.998C267.842 460.19 265.928 461.885 263.613 462.76C261.298 463.636 258.743 463.632 256.43 462.749V462.749Z" fill="#FFB6B6"/>
<path d="M161.428 718.482L173.687 718.481L179.52 671.193L161.425 671.194L161.428 718.482Z" fill="#FFB6B6"/>
<path d="M158.3 714.479L161.751 714.479L175.224 709L182.444 714.478H182.445C186.526 714.478 190.439 716.099 193.325 718.985C196.21 721.87 197.832 725.784 197.832 729.864V730.364L158.301 730.366L158.3 714.479Z" fill="#2F2E41"/>
<path d="M208.937 710.756L220.896 713.456L237.001 668.614L219.351 664.629L208.937 710.756Z" fill="#FFB6B6"/>
<path d="M206.768 706.163L210.134 706.923L224.483 704.546L230.319 711.48L230.32 711.48C234.301 712.38 237.761 714.823 239.94 718.273C242.119 721.723 242.838 725.898 241.94 729.878L241.829 730.366L203.269 721.659L206.768 706.163Z" fill="#2F2E41"/>
<path d="M138.983 475.24L150.07 599.449C150.07 599.449 145.916 674.019 159.32 700.259H178.759L188.384 592.639L189.592 520.404L231.268 581.346L204.724 698.5L228.649 700.639L271.724 573.5L224.4 454.146L138.983 475.24Z" fill="#2F2E41"/>
<path d="M150.594 277.439C166.384 277.439 179.185 264.639 179.185 248.849C179.185 233.058 166.384 220.258 150.594 220.258C134.804 220.258 122.003 233.058 122.003 248.849C122.003 264.639 134.804 277.439 150.594 277.439Z" fill="#FFB8B8"/>
<path d="M210.615 304.685L177.399 294.621L173.077 281.328L137.456 287.11L129.888 300.087L105.388 322.868L134.092 452.654L133.224 481C133.224 481 151.595 489.271 231.268 470.228C232.224 470 230.224 469 230.224 469L210.615 304.685Z" fill="#6C63FF"/>
<path d="M242.16 447.75L203.223 395.61L192.185 303.205L192.507 303.049C195.521 301.598 198.85 300.919 202.192 301.073C205.534 301.227 208.786 302.21 211.654 303.933C214.522 305.656 216.917 308.065 218.623 310.943C220.329 313.822 221.292 317.079 221.427 320.422L223.722 377.523L262.392 428.555L242.16 447.75Z" fill="#6C63FF"/>
<path d="M120.864 265.072C120.665 264.8 120.468 264.526 120.272 264.249C120.194 264.415 120.131 264.587 120.041 264.749L120.864 265.072Z" fill="#2F2E41"/>
<path d="M179.035 227.936C177.123 223.772 173.716 220.48 169.489 218.714C165.3 217.024 160.618 217.028 156.431 218.726C152.651 216.337 148.452 214.444 144.029 214.21C139.606 213.975 134.93 215.616 132.204 219.228C131.595 220.182 130.904 221.08 130.138 221.912C127.947 223.941 124.618 223.648 121.705 223.233C123.012 224.353 124.318 225.472 125.625 226.592C124.044 227.005 122.463 227.418 120.881 227.831C122.726 228.95 124.571 230.069 126.416 231.188C121.06 234.403 118.625 241.42 119.268 247.794C119.877 253.827 122.79 259.345 126.272 264.249C127.662 261.318 127.362 257.81 127.339 254.508C127.315 251.02 127.932 247.058 130.728 245.108C132.614 243.793 135.038 243.735 137.312 243.747C148.783 243.81 160.24 244.525 171.629 245.889C173.174 245.956 174.681 246.393 176.022 247.164C178.541 248.882 179.032 252.428 179.285 255.538C180.615 250.402 181.266 245.113 181.222 239.808C181.334 235.741 180.588 231.696 179.035 227.936Z" fill="#2F2E41"/>
<path d="M176.224 575C201.076 575 221.224 554.853 221.224 530C221.224 505.147 201.076 485 176.224 485C151.371 485 131.224 505.147 131.224 530C131.224 554.853 151.371 575 176.224 575Z" fill="#F0F0F0"/>
<path d="M176.224 484C173.91 484 171.6 484.174 169.313 484.52C168.143 484.69 167.004 484.91 165.873 485.18C157.572 487.094 149.965 491.276 143.902 497.261C137.839 503.246 133.558 510.798 131.536 519.074C129.515 527.35 129.833 536.025 132.455 544.131C135.076 552.237 139.899 559.455 146.384 564.98C147.154 565.63 147.933 566.26 148.744 566.86C154.582 571.213 161.37 574.117 168.55 575.334C175.729 576.55 183.095 576.045 190.042 573.858C196.988 571.672 203.315 567.867 208.504 562.758C213.692 557.648 217.593 551.379 219.886 544.467C222.178 537.555 222.796 530.198 221.689 523C220.582 515.803 217.782 508.971 213.519 503.067C209.256 497.163 203.652 492.356 197.168 489.041C190.684 485.726 183.506 483.998 176.224 484H176.224ZM176.224 574C166.868 574.01 157.755 571.02 150.224 565.47C149.404 564.87 148.614 564.25 147.844 563.59C141.526 558.26 136.837 551.258 134.317 543.385C131.797 535.513 131.547 527.09 133.595 519.081C135.643 511.073 139.907 503.805 145.898 498.109C151.888 492.414 159.363 488.522 167.464 486.88C168.583 486.65 169.704 486.47 170.844 486.33C172.628 486.109 174.425 485.999 176.224 486C187.893 486 199.085 490.636 207.336 498.887C215.588 507.139 220.224 518.33 220.224 530C220.224 541.67 215.588 552.861 207.336 561.113C199.085 569.364 187.893 574 176.224 574Z" fill="#3F3D56"/>
<path d="M154.224 521H198.224C199.88 521 201.224 519.657 201.224 518C201.224 516.343 199.88 515 198.224 515H154.224C152.567 515 151.224 516.343 151.224 518C151.224 519.657 152.567 521 154.224 521Z" fill="#6C63FF"/>
<path d="M154.224 533H198.224C199.88 533 201.224 531.657 201.224 530C201.224 528.343 199.88 527 198.224 527H154.224C152.567 527 151.224 528.343 151.224 530C151.224 531.657 152.567 533 154.224 533Z" fill="#6C63FF"/>
<path d="M154.224 545H198.224C199.88 545 201.224 543.657 201.224 542C201.224 540.343 199.88 539 198.224 539H154.224C152.567 539 151.224 540.343 151.224 542C151.224 543.657 152.567 545 154.224 545Z" fill="#6C63FF"/>
<path d="M179.103 497.774C177.65 497.55 176.264 497.009 175.043 496.192C173.821 495.374 172.794 494.298 172.033 493.04C171.272 491.782 170.796 490.373 170.639 488.911C170.482 487.449 170.647 485.971 171.123 484.58L142.974 462.566L160.577 456.652L184.609 478.464C186.893 479.418 188.747 481.177 189.82 483.408C190.894 485.638 191.112 488.184 190.433 490.565C189.754 492.945 188.226 494.993 186.138 496.322C184.05 497.651 181.547 498.167 179.103 497.774H179.103Z" fill="#FFB6B6"/>
<path d="M122.724 322.5L105.388 322.868C101.988 326 99.2817 329.81 97.4447 334.053C95.6078 338.296 94.6808 342.877 94.7235 347.5V429.409L159.772 483.793L180.805 463.425L132.389 410.677L122.724 322.5Z" fill="#6C63FF"/>
<path d="M899.866 127.573H256.004V539.93H899.866V127.573Z" fill="#E6E6E6"/>
<path d="M881.455 179.293H274.416V515.535H881.455V179.293Z" fill="white"/>
<path d="M899.591 127.208H255.73V154.561H899.591V127.208Z" fill="#6C63FF"/>
<path d="M276.057 146.262C278.857 146.262 281.126 143.992 281.126 141.192C281.126 138.392 278.857 136.122 276.057 136.122C273.257 136.122 270.987 138.392 270.987 141.192C270.987 143.992 273.257 146.262 276.057 146.262Z" fill="white"/>
<path d="M295.3 146.262C298.1 146.262 300.37 143.992 300.37 141.192C300.37 138.392 298.1 136.122 295.3 136.122C292.5 136.122 290.23 138.392 290.23 141.192C290.23 143.992 292.5 146.262 295.3 146.262Z" fill="white"/>
<path d="M314.544 146.262C317.344 146.262 319.614 143.992 319.614 141.192C319.614 138.392 317.344 136.122 314.544 136.122C311.744 136.122 309.474 138.392 309.474 141.192C309.474 143.992 311.744 146.262 314.544 146.262Z" fill="white"/>
<path d="M642.463 214.181H512.479V287.529H642.463V214.181Z" fill="#6C63FF"/>
<path d="M642.463 307.955H512.479V386.873H642.463V307.955Z" fill="#E6E6E6"/>
<path d="M826.297 214.181H670.317V330.305H826.297V214.181Z" fill="#E6E6E6"/>
<path d="M826.297 364.523H670.317V480.647H826.297V364.523Z" fill="#6C63FF"/>
<path d="M486.297 214.181H330.317V330.305H486.297V214.181Z" fill="#E6E6E6"/>
<path d="M749.464 421.592L705.447 587.182L707.066 589.288L751.5 422.133L749.464 421.592Z" fill="#3F3D56"/>
<path d="M483.224 400.647H333.224C332.295 400.647 331.405 400.279 330.749 399.622C330.092 398.966 329.724 398.076 329.724 397.147C329.724 396.219 330.092 395.329 330.749 394.672C331.405 394.016 332.295 393.647 333.224 393.647H483.224C484.152 393.647 485.042 394.016 485.698 394.672C486.355 395.329 486.724 396.219 486.724 397.147C486.724 398.076 486.355 398.966 485.698 399.622C485.042 400.279 484.152 400.647 483.224 400.647Z" fill="#E6E6E6"/>
<path d="M483.224 380.647H333.224C332.295 380.647 331.405 380.279 330.749 379.622C330.092 378.966 329.724 378.076 329.724 377.147C329.724 376.219 330.092 375.329 330.749 374.672C331.405 374.016 332.295 373.647 333.224 373.647H483.224C484.152 373.647 485.042 374.016 485.698 374.672C486.355 375.329 486.724 376.219 486.724 377.147C486.724 378.076 486.355 378.966 485.698 379.622C485.042 380.279 484.152 380.647 483.224 380.647Z" fill="#E6E6E6"/>
<path d="M483.224 420.647H333.224C332.295 420.647 331.405 420.279 330.749 419.622C330.092 418.966 329.724 418.076 329.724 417.147C329.724 416.219 330.092 415.329 330.749 414.672C331.405 414.016 332.295 413.647 333.224 413.647H483.224C484.152 413.647 485.042 414.016 485.698 414.672C486.355 415.329 486.724 416.219 486.724 417.147C486.724 418.076 486.355 418.966 485.698 419.622C485.042 420.279 484.152 420.647 483.224 420.647V420.647Z" fill="#E6E6E6"/>
<path d="M483.224 440.647H333.224C332.295 440.647 331.405 440.279 330.749 439.622C330.092 438.966 329.724 438.076 329.724 437.147C329.724 436.219 330.092 435.329 330.749 434.672C331.405 434.016 332.295 433.647 333.224 433.647H483.224C484.152 433.647 485.042 434.016 485.698 434.672C486.355 435.329 486.724 436.219 486.724 437.147C486.724 438.076 486.355 438.966 485.698 439.622C485.042 440.279 484.152 440.647 483.224 440.647V440.647Z" fill="#E6E6E6"/>
<path d="M483.224 460.647H333.224C332.295 460.647 331.405 460.279 330.749 459.622C330.092 458.966 329.724 458.076 329.724 457.147C329.724 456.219 330.092 455.329 330.749 454.672C331.405 454.016 332.295 453.647 333.224 453.647H483.224C484.152 453.647 485.042 454.016 485.698 454.672C486.355 455.329 486.724 456.219 486.724 457.147C486.724 458.076 486.355 458.966 485.698 459.622C485.042 460.279 484.152 460.647 483.224 460.647Z" fill="#E6E6E6"/>
<path d="M483.224 480.647H333.224C332.295 480.647 331.405 480.279 330.749 479.622C330.092 478.966 329.724 478.076 329.724 477.147C329.724 476.219 330.092 475.329 330.749 474.672C331.405 474.016 332.295 473.647 333.224 473.647H483.224C484.152 473.647 485.042 474.016 485.698 474.672C486.355 475.329 486.724 476.219 486.724 477.147C486.724 478.076 486.355 478.966 485.698 479.622C485.042 480.279 484.152 480.647 483.224 480.647Z" fill="#E6E6E6"/>
<path d="M639.471 420.647H515.471C514.543 420.647 513.653 420.279 512.996 419.622C512.34 418.966 511.971 418.076 511.971 417.147C511.971 416.219 512.34 415.329 512.996 414.672C513.653 414.016 514.543 413.647 515.471 413.647H639.471C640.399 413.647 641.29 414.016 641.946 414.672C642.602 415.329 642.971 416.219 642.971 417.147C642.971 418.076 642.602 418.966 641.946 419.622C641.29 420.279 640.399 420.647 639.471 420.647V420.647Z" fill="#E6E6E6"/>
<path d="M639.471 440.647H515.471C514.543 440.647 513.653 440.279 512.996 439.622C512.34 438.966 511.971 438.076 511.971 437.147C511.971 436.219 512.34 435.329 512.996 434.672C513.653 434.016 514.543 433.647 515.471 433.647H639.471C640.399 433.647 641.29 434.016 641.946 434.672C642.602 435.329 642.971 436.219 642.971 437.147C642.971 438.076 642.602 438.966 641.946 439.622C641.29 440.279 640.399 440.647 639.471 440.647V440.647Z" fill="#E6E6E6"/>
<path d="M639.471 460.647H515.471C514.543 460.647 513.653 460.279 512.996 459.622C512.34 458.966 511.971 458.076 511.971 457.147C511.971 456.219 512.34 455.329 512.996 454.672C513.653 454.016 514.543 453.647 515.471 453.647H639.471C640.399 453.647 641.29 454.016 641.946 454.672C642.602 455.329 642.971 456.219 642.971 457.147C642.971 458.076 642.602 458.966 641.946 459.622C641.29 460.279 640.399 460.647 639.471 460.647V460.647Z" fill="#E6E6E6"/>
<path d="M639.471 480.647H515.471C514.543 480.647 513.653 480.279 512.996 479.622C512.34 478.966 511.971 478.076 511.971 477.147C511.971 476.219 512.34 475.329 512.996 474.672C513.653 474.016 514.543 473.647 515.471 473.647H639.471C640.399 473.647 641.29 474.016 641.946 474.672C642.602 475.329 642.971 476.219 642.971 477.147C642.971 478.076 642.602 478.966 641.946 479.622C641.29 480.279 640.399 480.647 639.471 480.647V480.647Z" fill="#E6E6E6"/>
<path d="M700.224 673C725.076 673 745.224 652.853 745.224 628C745.224 603.147 725.076 583 700.224 583C675.371 583 655.224 603.147 655.224 628C655.224 652.853 675.371 673 700.224 673Z" fill="#F0F0F0"/>
<path d="M700.224 582C697.91 582 695.6 582.174 693.313 582.52C692.143 582.69 691.004 582.91 689.873 583.18C681.572 585.094 673.965 589.276 667.902 595.261C661.839 601.246 657.558 608.798 655.536 617.074C653.515 625.35 653.833 634.025 656.455 642.131C659.076 650.237 663.899 657.455 670.384 662.98C671.154 663.63 671.933 664.26 672.744 664.86C678.582 669.213 685.37 672.117 692.55 673.334C699.729 674.55 707.095 674.045 714.042 671.858C720.988 669.672 727.315 665.867 732.504 660.758C737.692 655.648 741.593 649.379 743.886 642.467C746.178 635.555 746.796 628.198 745.689 621C744.582 613.803 741.782 606.971 737.519 601.067C733.256 595.163 727.652 590.356 721.168 587.041C714.684 583.726 707.506 581.998 700.224 582V582ZM700.224 672C690.868 672.01 681.755 669.02 674.224 663.47C673.404 662.87 672.614 662.25 671.844 661.59C665.525 656.26 660.837 649.258 658.317 641.385C655.797 633.513 655.547 625.09 657.595 617.081C659.643 609.073 663.907 601.805 669.898 596.109C675.888 590.414 683.363 586.522 691.464 584.88C692.583 584.65 693.703 584.47 694.844 584.33C696.628 584.109 698.425 583.999 700.224 584C711.893 584 723.085 588.636 731.336 596.887C739.588 605.139 744.224 616.33 744.224 628C744.224 639.67 739.588 650.861 731.336 659.113C723.085 667.364 711.893 672 700.224 672Z" fill="#3F3D56"/>
<path d="M678.224 619H722.224C723.88 619 725.224 617.657 725.224 616C725.224 614.343 723.88 613 722.224 613H678.224C676.567 613 675.224 614.343 675.224 616C675.224 617.657 676.567 619 678.224 619Z" fill="#6C63FF"/>
<path d="M678.224 631H722.224C723.88 631 725.224 629.657 725.224 628C725.224 626.343 723.88 625 722.224 625H678.224C676.567 625 675.224 626.343 675.224 628C675.224 629.657 676.567 631 678.224 631Z" fill="#6C63FF"/>
<path d="M678.224 643H722.224C723.88 643 725.224 641.657 725.224 640C725.224 638.343 723.88 637 722.224 637H678.224C676.567 637 675.224 638.343 675.224 640C675.224 641.657 676.567 643 678.224 643Z" fill="#6C63FF"/>
<path d="M347.485 731.191H1.19072C0.875528 731.19 0.573565 731.064 0.351013 730.841C0.128461 730.618 0.003479 730.315 0.003479 730C0.003479 729.685 0.128461 729.382 0.351013 729.159C0.573565 728.936 0.875528 728.81 1.19072 728.809H347.485C347.8 728.81 348.102 728.936 348.324 729.159C348.547 729.382 348.672 729.685 348.672 730C348.672 730.315 348.547 730.618 348.324 730.841C348.102 731.064 347.8 731.19 347.485 731.191V731.191Z" fill="#CACACA"/>
</g>
<defs>
<clipPath id="clip0">
<rect width="899.866" height="731.191" fill="white"/>
</clipPath>
</defs>
</svg>
